<?xml version="1.0" standalone="no"?>
<!DOCTYPE svg PUBLIC "-//W3C//DTD SVG 20010904//EN"
 "http://www.w3.org/TR/2001/REC-SVG-20010904/DTD/svg10.dtd">
<svg version="1.0" xmlns="http://www.w3.org/2000/svg"
 width="1920.000000pt" height="1080.000000pt" viewBox="0 0 1920.000000 1080.000000"
 preserveAspectRatio="xMidYMid meet">

<g transform="translate(0.000000,1080.000000) scale(0.100000,-0.100000)"
fill="#000000" stroke="none">
<path d="M8910 10325 c-101 -28 -198 -83 -276 -157 -41 -39 -74 -74 -74 -78 0
-4 7 -11 16 -14 10 -4 33 12 67 45 117 116 232 169 382 176 81 4 114 1 175
-17 126 -35 120 -35 120 -13 0 51 -288 91 -410 58z"/>
<path d="M9000 10091 c-165 -42 -283 -114 -408 -246 -66 -70 -80 -90 -71 -101
18 -22 23 -18 70 43 93 120 257 224 419 264 150 38 340 11 528 -76 85 -40 88
-40 96 -20 6 16 -57 51 -164 93 -147 57 -345 75 -470 43z"/>
<path d="M9045 9826 c-207 -54 -370 -144 -565 -311 -293 -251 -608 -713 -845
-1240 l-44 -100 -48 0 c-26 1 -125 6 -220 13 -691 49 -1264 -60 -1644 -313
-213 -142 -359 -309 -465 -530 -222 -464 -197 -1029 66 -1496 181 -321 429
-638 750 -960 273 -273 542 -499 850 -713 69 -48 135 -95 148 -104 22 -16 24
-28 42 -277 34 -468 71 -751 136 -1043 14 -63 24 -115 22 -117 -6 -7 -239 -35
-373 -46 -141 -11 -298 -7 -435 12 -365 50 -588 221 -660 506 -11 43 -20 81
-20 84 0 4 34 19 76 34 203 74 402 274 483 485 78 204 65 456 -34 627 -16 27
-64 84 -109 128 -123 122 -231 171 -401 181 -180 12 -386 -57 -533 -177 -128
-103 -247 -285 -289 -439 -28 -102 -25 -312 5 -410 26 -84 58 -144 109 -208
32 -39 34 -45 24 -75 -23 -66 -41 -216 -41 -347 0 -290 82 -494 270 -680 349
-343 1024 -446 2003 -304 60 8 110 14 112 12 1 -2 26 -61 55 -133 315 -785
793 -1303 1379 -1495 398 -131 734 -116 1051 46 603 308 1065 1183 1325 2505
40 205 92 534 112 713 l8 69 170 125 c298 219 638 493 844 681 l94 85 29 -34
c70 -82 235 -346 303 -483 118 -238 165 -404 165 -585 0 -120 -20 -204 -67
-294 -39 -75 -127 -171 -185 -202 l-35 -19 -50 47 c-98 93 -246 178 -368 212
-34 9 -114 18 -185 21 -195 8 -316 -27 -457 -130 -155 -115 -237 -286 -237
-492 0 -302 170 -560 468 -709 129 -65 224 -88 366 -89 90 0 132 4 195 22 208
58 371 202 435 384 l18 52 89 31 c436 152 704 437 774 824 17 95 15 309 -5
420 -73 416 -314 904 -708 1432 l-89 119 94 142 c348 527 528 1009 529 1418 0
212 -28 349 -108 514 -152 314 -503 573 -893 661 -284 63 -847 61 -1239 -6
-411 -71 -873 -214 -1308 -406 l-121 -53 -184 85 c-384 178 -761 330 -1168
468 -107 37 -197 68 -199 71 -8 8 165 332 237 442 131 199 226 308 356 405
145 109 255 150 405 150 112 1 194 -18 289 -67 101 -52 95 -43 75 -116 -27
-96 -25 -327 4 -431 58 -212 206 -398 386 -487 131 -64 321 -78 463 -33 209
66 399 280 465 522 19 71 22 109 22 225 -1 165 -21 252 -84 374 -135 259 -367
402 -630 389 l-95 -5 -78 73 c-196 184 -428 310 -662 359 -112 23 -311 19
-420 -9z m-1698 -2339 c2 -3 -18 -97 -46 -209 -102 -409 -184 -920 -225 -1403
l-13 -159 -69 -60 c-113 -99 -312 -296 -368 -366 -79 -97 -113 -145 -96 -135
8 5 119 77 245 160 127 84 241 158 254 165 l24 12 -6 -68 c-4 -38 -10 -241
-14 -451 l-6 -382 -61 47 c-326 250 -682 594 -899 868 -204 260 -370 574 -413
784 -21 103 -15 311 12 410 25 95 78 213 131 293 176 265 522 442 973 497 76
9 567 7 577 -3z m4783 -11 c365 -71 615 -275 710 -581 30 -98 38 -270 16 -393
-42 -239 -194 -569 -385 -832 l-29 -40 -99 91 c-276 258 -720 615 -1031 829
-55 38 -94 72 -97 84 -50 237 -133 521 -196 670 -16 37 -29 72 -29 76 0 21
382 91 615 114 98 10 443 -3 525 -18z m-1176 -173 c33 -325 53 -538 51 -541
-1 -1 -76 44 -166 101 -90 56 -211 130 -269 163 -58 34 -138 80 -179 104 -55
31 -70 45 -59 51 49 27 553 187 594 188 19 1 22 -6 28 -66z m-2724 -12 c325
-89 823 -263 803 -282 -4 -4 -116 -65 -248 -136 -254 -137 -422 -239 -730
-442 -104 -69 -194 -128 -199 -130 -28 -12 84 603 164 907 25 94 36 122 49
122 9 0 82 -18 161 -39z m1500 -593 c408 -214 811 -464 1222 -757 l115 -82 6
-187 c14 -393 4 -1069 -19 -1269 l-5 -53 -192 -128 c-465 -312 -845 -531
-1366 -789 l-254 -125 -46 22 c-82 39 -1031 540 -1208 637 -94 51 -182 102
-194 112 -22 18 -22 18 -27 497 -5 487 5 848 33 1199 8 99 15 183 15 186 0 8
309 192 575 344 280 160 546 301 799 426 l239 117 86 -40 c47 -22 147 -71 221
-110z m1694 -1115 c110 -88 320 -267 436 -372 58 -52 109 -98 113 -101 10 -8
-241 -232 -443 -394 l-155 -125 -2 142 c-3 228 -23 787 -29 850 -4 31 -3 57 1
57 4 0 40 -26 79 -57z m-3348 -2112 c211 -105 645 -305 728 -335 10 -3 17 -8
15 -10 -2 -3 -101 -43 -219 -91 -234 -94 -579 -213 -632 -217 l-33 -3 -32 160
c-49 238 -104 625 -90 625 2 0 120 -58 263 -129z m2780 -223 c-61 -247 -190
-688 -202 -688 -3 0 -132 67 -287 149 -155 81 -302 158 -327 171 l-44 22 39
20 c173 86 597 331 790 456 37 24 61 34 63 27 2 -7 -13 -77 -32 -157z m-963
-508 c157 -49 517 -149 650 -181 116 -28 113 -10 42 -201 -253 -676 -547
-1119 -860 -1296 -129 -72 -190 -87 -355 -86 -130 0 -154 3 -230 28 -183 60
-409 208 -540 353 -77 87 -180 226 -244 333 -94 155 -234 459 -221 480 3 4 20
11 39 14 60 11 386 111 567 174 294 102 737 285 925 381 44 22 84 40 89 41 6
0 68 -18 138 -40z"/>
<path d="M9185 6524 c-634 -107 -1137 -624 -1259 -1294 -58 -318 -13 -638 129
-935 190 -395 553 -666 979 -732 121 -18 341 -13 458 12 175 36 365 116 524
221 118 78 328 287 413 412 354 522 385 1195 78 1702 -195 322 -528 549 -902
614 -109 19 -308 19 -420 0z m405 -39 c284 -46 557 -197 737 -405 279 -323
396 -740 332 -1175 -87 -583 -491 -1074 -1029 -1249 -148 -47 -233 -60 -405
-60 -339 0 -621 114 -867 352 -240 232 -382 546 -407 894 -33 478 142 932 487
1259 320 305 751 449 1152 384z"/>
<path d="M5060 8250 c-209 -28 -389 -115 -509 -247 -59 -64 -126 -177 -115
-194 13 -22 34 -5 60 49 38 76 160 198 245 245 122 68 248 102 423 113 94 6
106 9 106 25 0 17 -8 19 -77 18 -43 -1 -103 -5 -133 -9z"/>
<path d="M12970 8052 c0 -16 13 -21 86 -31 188 -26 348 -98 465 -208 78 -74
120 -135 160 -234 27 -65 55 -188 61 -269 2 -24 9 -36 21 -38 14 -3 17 4 17
45 0 74 -27 196 -61 278 -100 241 -301 396 -589 455 -126 26 -160 26 -160 2z"/>
<path d="M5465 8003 c-203 -45 -351 -116 -470 -224 -148 -136 -265 -385 -282
-603 -6 -73 -5 -78 13 -74 16 3 20 16 27 73 25 237 141 463 304 599 110 91
285 170 426 191 37 6 47 11 47 26 0 19 -19 23 -65 12z"/>
<path d="M13903 3669 c-7 -7 0 -29 24 -74 69 -130 90 -299 57 -447 -39 -172
-130 -323 -301 -497 -96 -99 -110 -118 -98 -130 12 -12 30 3 127 100 226 227
328 439 328 678 0 109 -26 217 -76 312 -38 71 -43 76 -61 58z"/>
<path d="M14323 3012 c-6 -42 -21 -104 -33 -135 -29 -77 -104 -175 -162 -212
-51 -33 -52 -34 -39 -53 24 -39 160 88 215 200 36 72 65 183 66 246 0 24 -4
32 -18 32 -15 0 -20 -14 -29 -78z"/>
<path d="M4790 2423 c0 -286 156 -534 417 -666 46 -24 52 -25 58 -9 7 19 3 22
-87 72 -80 44 -204 167 -251 247 -57 99 -89 210 -95 336 -4 96 -6 107 -23 107
-17 0 -19 -9 -19 -87z"/>
<path d="M4470 2428 c0 -174 57 -330 140 -386 29 -19 35 -20 42 -8 6 11 -3 27
-35 58 -66 64 -107 193 -107 341 0 50 -2 57 -20 57 -18 0 -20 -7 -20 -62z"/>
<path d="M8329 393 c-15 -18 4 -37 148 -146 220 -168 479 -248 707 -219 113
14 126 19 126 44 0 16 -5 19 -22 14 -77 -20 -202 -28 -291 -17 -199 23 -387
113 -584 279 -63 54 -73 59 -84 45z"/>
</g>
</svg>
